<svg id="tela" xmlns="http://www.w3.org/2000/svg" width="69.75" height="65.392" viewBox="0 0 69.75 65.392">
  <path id="Trazado_191062" data-name="Trazado 191062" d="M67.026,376H2.725A2.725,2.725,0,0,0,0,378.723v10.9a2.725,2.725,0,0,0,2.725,2.725h64.3a2.725,2.725,0,0,0,2.725-2.725v-10.9A2.725,2.725,0,0,0,67.026,376ZM36.559,386.9l2.725-5.449h12.98L49.539,386.9Zm-19.072,0,2.725-5.449h12.98L30.467,386.9ZM5.449,381.447h8.67L11.394,386.9H5.449ZM64.3,386.9h-8.67l2.725-5.449H64.3Z" transform="translate(0 -326.955)" fill="#004f83"/>
  <path id="Trazado_191063" data-name="Trazado 191063" d="M.391,235.4l3.9,6.649a2.725,2.725,0,1,0,4.7-2.754l-.432-.737A109.36,109.36,0,0,0,34.892,242.2a109.36,109.36,0,0,0,26.336-3.639l-.432.737a2.725,2.725,0,1,0,4.7,2.754l3.9-6.649a2.736,2.736,0,0,0-.974-3.728l-6.65-3.9a2.725,2.725,0,0,0-2.754,4.7l1.2.7a104.9,104.9,0,0,1-25.321,3.568,105.044,105.044,0,0,1-25.318-3.57l1.194-.7a2.725,2.725,0,0,0-2.754-4.7l-6.649,3.9A2.733,2.733,0,0,0,.391,235.4Z" transform="translate(-0.017 -198.602)" fill="#004f83"/>
  <path id="Trazado_191064" data-name="Trazado 191064" d="M169.623,48.694A13.639,13.639,0,0,0,183.246,35.07c0-3.185-1.984-7.161-6.064-12.155a73.334,73.334,0,0,0-5.685-6.17,2.725,2.725,0,0,0-3.749,0,73.382,73.382,0,0,0-5.685,6.17C157.984,27.909,156,31.885,156,35.07A13.639,13.639,0,0,0,169.623,48.694Zm0-26.122c3.86,4.037,8.174,9.641,8.174,12.5a8.174,8.174,0,1,1-16.348,0C161.449,32.213,165.763,26.609,169.623,22.572Z" transform="translate(-134.748 -15.998)" fill="#004f83"/>
</svg>
