<svg id="resistente-al-agua" xmlns="http://www.w3.org/2000/svg" width="69.75" height="69.748" viewBox="0 0 69.75 69.748">
  <path id="Trazado_191070" data-name="Trazado 191070" d="M65.764,369.7c-4.576.81-4.98,3.924-9,3.924a6.109,6.109,0,0,1-4.249-1.637,10.373,10.373,0,0,0-13.39,0,6.332,6.332,0,0,1-8.5,0,10.373,10.373,0,0,0-13.389,0,6.109,6.109,0,0,1-4.249,1.637c-4.018,0-4.427-3.114-9-3.924A3.4,3.4,0,0,0,0,373.057v8.464a3.416,3.416,0,0,0,2.976,3.392,6.452,6.452,0,0,1,3.316,1.582,10.084,10.084,0,0,0,6.695,2.45,10.085,10.085,0,0,0,6.695-2.45,6.332,6.332,0,0,1,8.5,0,10.373,10.373,0,0,0,13.39,0,6.333,6.333,0,0,1,8.5,0,10.084,10.084,0,0,0,6.695,2.45c5.741,0,6.569-3.6,10.012-4.032a3.416,3.416,0,0,0,2.976-3.392v-8.464a3.4,3.4,0,0,0-3.986-3.356Zm-.1,11.251c-4.5.849-4.9,3.906-8.9,3.906a6.109,6.109,0,0,1-4.249-1.637,10.373,10.373,0,0,0-13.39,0,6.332,6.332,0,0,1-8.5,0,10.373,10.373,0,0,0-13.389,0,6.109,6.109,0,0,1-4.249,1.637c-4,0-4.393-3.056-8.9-3.906v-7.015c2.4.85,3.832,3.775,8.9,3.775a10.085,10.085,0,0,0,6.695-2.45,6.332,6.332,0,0,1,8.5,0,10.373,10.373,0,0,0,13.39,0,6.333,6.333,0,0,1,8.5,0,10.084,10.084,0,0,0,6.695,2.45c5.068,0,6.5-2.924,8.9-3.775Z" transform="translate(0 -319.196)" fill="#004f83"/>
  <path id="Trazado_191071" data-name="Trazado 191071" d="M48.6,207.073l24.886,12.879a5.26,5.26,0,0,0,4.828,0L97.938,209.8l-.921,2.017a2.043,2.043,0,1,0,3.717,1.7l3.371-7.379a2.044,2.044,0,0,0-1.564-2.9l-8.061-1.129a2.043,2.043,0,1,0-.567,4.047l1.71.239-19.188,9.93a1.168,1.168,0,0,1-1.071,0L50.476,203.444a2.043,2.043,0,0,0-1.878,3.63Z" transform="translate(-41.023 -174.556)" fill="#004f83"/>
  <path id="Trazado_191072" data-name="Trazado 191072" d="M194.4,26.228a11.323,11.323,0,0,0,.16-11.116L187.191,1.5a2.848,2.848,0,0,0-5.007,0L174.82,15.112a11.323,11.323,0,0,0,.16,11.116,11.2,11.2,0,0,0,19.416,0Zm-15.981-9.171,6.273-11.6,6.273,11.6a7.263,7.263,0,0,1-.105,7.13,7.112,7.112,0,0,1-12.335,0,7.263,7.263,0,0,1-.106-7.13Z" transform="translate(-149.813 -0.006)" fill="#004f83"/>
</svg>
