<svg id="arrugas" xmlns="http://www.w3.org/2000/svg" width="69.75" height="65.392" viewBox="0 0 69.75 65.392">
  <path id="Trazado_191065" data-name="Trazado 191065" d="M67.026,376H2.725A2.725,2.725,0,0,0,0,378.723v10.9a2.725,2.725,0,0,0,2.725,2.725h64.3a2.725,2.725,0,0,0,2.725-2.725v-10.9A2.725,2.725,0,0,0,67.026,376ZM36.559,386.9l2.725-5.449h12.98L49.539,386.9Zm-19.072,0,2.725-5.449h12.98L30.467,386.9ZM5.449,381.447h8.67L11.394,386.9H5.449ZM64.3,386.9h-8.67l2.725-5.449H64.3Z" transform="translate(0 -326.955)" fill="#4aa3dc"/>
  <path id="Trazado_191066" data-name="Trazado 191066" d="M2.725,232.346h15.8c7.616,0,10.649-4.463,12.864-7.722,1.567-2.305,2.273-3.176,3.484-3.176s1.917.871,3.484,3.176c2.215,3.259,5.248,7.722,12.864,7.722h15.8a2.725,2.725,0,0,0,0-5.449h-15.8c-4.731,0-6.411-2.473-8.357-5.336-1.684-2.478-3.78-5.562-7.991-5.562s-6.307,3.084-7.991,5.562c-1.946,2.863-3.626,5.336-8.357,5.336H2.725a2.725,2.725,0,1,0,0,5.449Z" transform="translate(0 -188.752)" fill="#4aa3dc"/>
  <path id="Trazado_191067" data-name="Trazado 191067" d="M202.247,37a2.729,2.729,0,0,0,3.853,0l5.449-5.449a2.725,2.725,0,1,0-3.853-3.853l-.8.8v-9.77a2.725,2.725,0,0,0-5.449,0v9.77l-.8-.8a2.725,2.725,0,0,0-3.853,3.853Z" transform="translate(-169.299 -15.998)" fill="#4aa3dc"/>
  <path id="Trazado_191068" data-name="Trazado 191068" d="M42.247,117a2.731,2.731,0,0,0,3.853,0l5.449-5.449a2.725,2.725,0,0,0-3.853-3.853l-.8.8v-9.77a2.725,2.725,0,0,0-5.449,0v9.77l-.8-.8a2.725,2.725,0,0,0-3.853,3.853Z" transform="translate(-31.096 -85.099)" fill="#4aa3dc"/>
  <path id="Trazado_191069" data-name="Trazado 191069" d="M362.247,117a2.733,2.733,0,0,0,3.853,0l5.449-5.449a2.725,2.725,0,0,0-3.853-3.853l-.8.8v-9.77a2.725,2.725,0,1,0-5.449,0v9.77l-.8-.8a2.725,2.725,0,0,0-3.853,3.853Z" transform="translate(-307.502 -85.099)" fill="#4aa3dc"/>
</svg>
