<svg id="tejido-duradero" xmlns="http://www.w3.org/2000/svg" width="69.75" height="69.751" viewBox="0 0 69.75 69.751">
  <path id="Trazado_191059" data-name="Trazado 191059" d="M67.026,392H2.725A2.725,2.725,0,0,0,0,394.725v10.9a2.725,2.725,0,0,0,2.725,2.725h64.3a2.725,2.725,0,0,0,2.725-2.725v-10.9A2.725,2.725,0,0,0,67.026,392ZM36.559,402.9l2.725-5.449h12.98L49.539,402.9Zm-19.072,0,2.725-5.449h12.98L30.467,402.9ZM5.449,397.449h8.67L11.394,402.9H5.449ZM64.3,402.9h-8.67l2.725-5.449H64.3Z" transform="translate(0 -338.597)" fill="#4aa3dc"/>
  <path id="Trazado_191060" data-name="Trazado 191060" d="M84.174,49.043h32.7a8.179,8.179,0,0,0,7.93-10.161l-5.449-21.8a8.16,8.16,0,0,0-7.93-6.187H108.7V8.174a8.174,8.174,0,0,0-16.348,0V10.9H89.623a8.16,8.16,0,0,0-7.93,6.187l-5.449,21.8a8.179,8.179,0,0,0,7.93,10.161ZM97.8,8.174a2.725,2.725,0,1,1,5.449,0V10.9H97.8ZM81.53,40.2l5.449-21.8a2.719,2.719,0,0,1,2.644-2.06h21.8a2.719,2.719,0,0,1,2.644,2.059l5.449,21.8a2.73,2.73,0,0,1-2.644,3.39h-32.7A2.73,2.73,0,0,1,81.53,40.2Z" transform="translate(-65.646)" fill="#4aa3dc"/>
  <path id="Trazado_191061" data-name="Trazado 191061" d="M204.174,176.348A8.174,8.174,0,1,0,196,168.174,8.183,8.183,0,0,0,204.174,176.348Zm0-10.9a2.725,2.725,0,1,1-2.725,2.725A2.728,2.728,0,0,1,204.174,165.449Z" transform="translate(-169.299 -138.203)" fill="#4aa3dc"/>
</svg>
